<svg version="1.1" xmlns="http://www.w3.org/2000/svg" xmlns:xlink="http://www.w3.org/1999/xlink">

    <symbol id="odnoitaznie-doma" viewBox="0 0 20 20" fill="none">
        <path style="transition: all .3s" d="M2.5 12.125L10 16.5L17.5 12.125" stroke="var(--category-icon-color)" stroke-linecap="round" stroke-linejoin="round"/>
        <path style="transition: all .3s" d="M2.5 8.375L10 12.75L17.5 8.375L10 4L2.5 8.375Z" stroke="var(--category-icon-color)" stroke-linecap="round" stroke-linejoin="round"/>
    </symbol>

    <symbol id="dvyxitaznie-doma" viewBox="0 0 20 20" fill="none">
        <path style="transition: all .3s" d="M2.5 10.125L10 14.5L17.5 10.125" stroke="var(--category-icon-color)" stroke-linecap="round" stroke-linejoin="round"/>
        <path style="transition: all .3s" d="M2.5 14L10 18.375L17.5 14" stroke="var(--category-icon-color)" stroke-linecap="round" stroke-linejoin="round"/>
        <path style="transition: all .3s" d="M2.5 6.375L10 10.75L17.5 6.375L10 2L2.5 6.375Z" stroke="var(--category-icon-color)" stroke-linecap="round" stroke-linejoin="round"/>
    </symbol>

    <symbol id="mansardnie-doma" viewBox="0 0 20 20" fill="none">
        <path style="transition: all .3s" d="M8.125 8.125V16.25" stroke="var(--category-icon-color)" stroke-linecap="round" stroke-linejoin="round"/>
        <path style="transition: all .3s" d="M2.5 8.125H17.5" stroke="var(--category-icon-color)" stroke-linecap="round" stroke-linejoin="round"/>
        <path style="transition: all .3s" d="M16.875 3.75H3.125C2.77982 3.75 2.5 4.02982 2.5 4.375V15.625C2.5 15.9702 2.77982 16.25 3.125 16.25H16.875C17.2202 16.25 17.5 15.9702 17.5 15.625V4.375C17.5 4.02982 17.2202 3.75 16.875 3.75Z" stroke="var(--category-icon-color)" stroke-linecap="round" stroke-linejoin="round"/>
    </symbol>

    <symbol id="ploshad-bolshe"  viewBox="0 0 20 10" fill="none">
        <path style="transition: all .3s" d="M5.52643 6.94004L0 9.77954V8.43034L4.07824 6.46385L4.03662 6.5388V6.34921L4.07824 6.42857L0 4.45767V3.11288L5.52643 5.95238V6.94004Z" fill="var(--category-icon-color)"/>
        <path style="transition: all .3s" d="M11.0882 8.36861L13.1523 3.22751H14.226L11.5501 10H10.6263L8.00458 3.22751H9.06575L11.0882 8.36861ZM8.72035 3.22751V10H7.50104V3.22751H8.72035ZM13.4894 10V3.22751H14.7004V10H13.4894Z" fill="var(--category-icon-color)"/>
        <path style="transition: all .3s" d="M16.0799 5.48501V4.70018L18.0566 2.90564C18.2369 2.74103 18.3895 2.59259 18.5144 2.46032C18.6392 2.32804 18.7335 2.19871 18.7973 2.07231C18.8639 1.94298 18.8972 1.80482 18.8972 1.65785C18.8972 1.41093 18.8057 1.21693 18.6226 1.07584C18.4422 0.931805 18.2189 0.859789 17.9526 0.859789C17.6696 0.859789 17.4421 0.937684 17.2701 1.09347C17.0981 1.24927 17.0121 1.45797 17.0121 1.71958H16.0258C16.0258 1.19635 16.2075 0.778953 16.571 0.467372C16.9344 0.155791 17.4005 0 17.9692 0C18.3521 0 18.6864 0.0720164 18.9721 0.216049C19.2579 0.360082 19.4798 0.555556 19.638 0.802469C19.7989 1.04938 19.8793 1.32863 19.8793 1.64021C19.8793 1.88713 19.8322 2.1164 19.7378 2.32804C19.6435 2.53968 19.4965 2.75426 19.2967 2.97178C19.097 3.1893 18.8403 3.43034 18.5268 3.69489L17.5614 4.55908V4.59877H20V5.48501H16.0799Z" fill="var(--category-icon-color)"/>
    </symbol>

    <symbol id="ploshad-menshe" viewBox="0 0 20 20" fill="none">
        <path style="transition: all .3s" d="M0 11.94V10.9524L5.52643 8.11288V9.45767L1.44819 11.4286L1.48564 11.3492V11.5388L1.44819 11.4638L5.52643 13.4303V14.7795L0 11.94Z" fill="var(--category-icon-color) "/>
        <path style="transition: all .3s" d="M11.0882 13.3686L13.1523 8.22751H14.226L11.5501 15H10.6263L8.00458 8.22751H9.06575L11.0882 13.3686ZM8.72035 8.22751V15H7.50104V8.22751H8.72035ZM13.4894 15V8.22751H14.7004V15H13.4894Z" fill="var(--category-icon-color) "/>
        <path style="transition: all .3s" d="M16.0799 10.485V9.70018L18.0566 7.90564C18.2369 7.74103 18.3895 7.59259 18.5144 7.46032C18.6392 7.32804 18.7335 7.19871 18.7973 7.07231C18.8639 6.94298 18.8972 6.80482 18.8972 6.65785C18.8972 6.41093 18.8057 6.21693 18.6226 6.07584C18.4422 5.93181 18.2189 5.85979 17.9526 5.85979C17.6696 5.85979 17.4421 5.93768 17.2701 6.09347C17.0981 6.24927 17.0121 6.45797 17.0121 6.71958H16.0258C16.0258 6.19635 16.2075 5.77895 16.571 5.46737C16.9344 5.15579 17.4005 5 17.9692 5C18.3521 5 18.6864 5.07202 18.9721 5.21605C19.2579 5.36008 19.4798 5.55556 19.638 5.80247C19.7989 6.04938 19.8793 6.32863 19.8793 6.64021C19.8793 6.88713 19.8322 7.1164 19.7378 7.32804C19.6435 7.53968 19.4965 7.75426 19.2967 7.97178C19.097 8.1893 18.8403 8.43034 18.5268 8.69489L17.5614 9.55908V9.59877H20V10.485H16.0799Z" fill="var(--category-icon-color) "/>
    </symbol>

    <symbol id="zogorodmie-doma" viewBox="0 0 16 16" fill="none">
        <path style="transition: all .3s" d="M9.87454 14.2494V10.4993C9.87454 10.3335 9.80869 10.1746 9.69148 10.0574C9.57427 9.94014 9.4153 9.87429 9.24954 9.87429H6.74954C6.58378 9.87429 6.42481 9.94014 6.3076 10.0574C6.19039 10.1746 6.12454 10.3335 6.12454 10.4993V14.2494C6.12454 14.4151 6.0587 14.5741 5.94151 14.6913C5.82432 14.8085 5.66537 14.8744 5.49962 14.8744L1.75008 14.8749C1.668 14.8749 1.58671 14.8587 1.51088 14.8273C1.43504 14.7959 1.36613 14.7499 1.30809 14.6918C1.25004 14.6338 1.204 14.5649 1.17258 14.4891C1.14117 14.4132 1.125 14.3319 1.125 14.2499V7.0264C1.125 6.93932 1.14319 6.85321 1.17842 6.77358C1.21364 6.69394 1.26511 6.62255 1.32954 6.56397L7.57911 0.881568C7.69415 0.776964 7.84406 0.718999 7.99955 0.718994C8.15504 0.718989 8.30495 0.776944 8.42 0.88154L14.6704 6.56397C14.7349 6.62255 14.7863 6.69395 14.8216 6.77358C14.8568 6.85322 14.875 6.93934 14.875 7.02642V14.2499C14.875 14.332 14.8588 14.4132 14.8274 14.4891C14.796 14.5649 14.75 14.6338 14.6919 14.6918C14.6339 14.7499 14.565 14.7959 14.4891 14.8273C14.4133 14.8587 14.332 14.8749 14.2499 14.8749L10.4995 14.8744C10.3337 14.8744 10.1748 14.8085 10.0576 14.6913C9.94038 14.5741 9.87454 14.4151 9.87454 14.2494V14.2494Z" stroke="var(--category-icon-color)" stroke-linecap="round" stroke-linejoin="round"/>
    </symbol>

    <symbol id="dachnie-doma"  viewBox="0 0 20 20" fill="none">
        <path style="transition: all .3s" d="M16.874 16.8749V9.02642C16.874 8.93934 16.8558 8.85322 16.8206 8.77358C16.7854 8.69395 16.7339 8.62255 16.6695 8.56397L10.419 2.88154C10.304 2.77694 10.1541 2.71899 9.99857 2.71899C9.84308 2.719 9.69318 2.77696 9.57813 2.88157L3.32856 8.56397C3.26414 8.62255 3.21266 8.69394 3.17744 8.77358C3.14222 8.85321 3.12402 8.93932 3.12402 9.0264V16.8749" stroke="var(--category-icon-color)" stroke-linecap="round" stroke-linejoin="round"/>
        <path style="transition: all .3s" d="M1.24902 16.875H18.749" stroke="var(--category-icon-color)" stroke-linecap="round" stroke-linejoin="round"/>
        <path style="transition: all .3s" d="M11.8735 16.8743V12.4993C11.8735 12.3335 11.8077 12.1745 11.6905 12.0573C11.5733 11.9401 11.4143 11.8743 11.2485 11.8743H8.74854C8.58277 11.8743 8.4238 11.9401 8.30659 12.0573C8.18938 12.1745 8.12354 12.3335 8.12354 12.4993V16.8743" stroke="var(--category-icon-color)" stroke-linecap="round" stroke-linejoin="round"/>
    </symbol>

    <symbol id="bani"  viewBox="0 0 20 20" fill="none">
        <path style="transition: all .3s" d="M2.5 4.375H17.5V15C17.5 15.1658 17.4341 15.3247 17.3169 15.4419C17.1997 15.5592 17.0407 15.625 16.875 15.625H3.125C2.95924 15.625 2.80027 15.5592 2.68306 15.4419C2.56585 15.3247 2.5 15.1658 2.5 15V4.375Z" stroke="var(--category-icon-color)" stroke-linecap="round" stroke-linejoin="round"/>
        <path style="transition: all .3s" d="M2.5 8.125H17.5" stroke="var(--category-icon-color)" stroke-linecap="round" stroke-linejoin="round"/>
        <path style="transition: all .3s" d="M2.5 11.875H17.5" stroke="var(--category-icon-color)" stroke-linecap="round" stroke-linejoin="round"/>
        <path style="transition: all .3s" d="M6.875 8.125V15.625" stroke="var(--category-icon-color)" stroke-linecap="round" stroke-linejoin="round"/>
    </symbol>

    <symbol id="barnhouse" viewBox="0 0 20 20" fill="none">
        <path style="transition: all .3s" d="M16.6704 8.56397L10.42 2.88154C10.3049 2.77694 10.155 2.71899 9.99955 2.71899C9.84406 2.719 9.69415 2.77696 9.57911 2.88157L3.32954 8.56397C3.26511 8.62255 3.21364 8.69394 3.17842 8.77358C3.14319 8.85321 3.125 8.93932 3.125 9.0264V16.2499C3.125 16.4157 3.19085 16.5747 3.30806 16.6919C3.42527 16.8091 3.58424 16.8749 3.75 16.8749H16.25C16.4158 16.8749 16.5747 16.8091 16.6919 16.6919C16.8092 16.5747 16.875 16.4157 16.875 16.2499V9.02642C16.875 8.93934 16.8568 8.85322 16.8216 8.77358C16.7863 8.69395 16.7349 8.62255 16.6704 8.56397Z" stroke="var(--category-icon-color)" stroke-linecap="round" stroke-linejoin="round"/>
    </symbol>

    <symbol id="karkasnie-doma" viewBox="0 0 20 20" fill="none">
        <path style="transition: all .3s" d="M15.9375 3.4375H4.0625C3.71732 3.4375 3.4375 3.71732 3.4375 4.0625V15.9375C3.4375 16.2827 3.71732 16.5625 4.0625 16.5625H15.9375C16.2827 16.5625 16.5625 16.2827 16.5625 15.9375V4.0625C16.5625 3.71732 16.2827 3.4375 15.9375 3.4375Z" stroke="var(--category-icon-color)" stroke-linecap="round" stroke-linejoin="round"/>
        <path style="transition: all .3s" d="M10 3.4375V16.5625" stroke="var(--category-icon-color)" stroke-linecap="round" stroke-linejoin="round"/>
        <path style="transition: all .3s" d="M10.9375 3.4375L16.563 9.06296" stroke="var(--category-icon-color)" stroke-linecap="round" stroke-linejoin="round"/>
        <path style="transition: all .3s" d="M10 6.87549L16.5625 13.438" stroke="var(--category-icon-color)" stroke-linecap="round" stroke-linejoin="round"/>
        <path style="transition: all .3s" d="M10 11.2505L15.312 16.5625" stroke="var(--category-icon-color)" stroke-linecap="round" stroke-linejoin="round"/>
    </symbol>

    <symbol id="kamennie-doma" viewBox="0 0 20 20" fill="none">
        <path style="transition: all .3s" d="M10 8.125V4.375" stroke="var(--category-icon-color)" stroke-linecap="round" stroke-linejoin="round"/>
        <path style="transition: all .3s" d="M6.25 11.875V8.125" stroke="var(--category-icon-color)" stroke-linecap="round" stroke-linejoin="round"/>
        <path style="transition: all .3s" d="M13.75 11.875V8.125" stroke="var(--category-icon-color)" stroke-linecap="round" stroke-linejoin="round"/>
        <path style="transition: all .3s" d="M10 15.625V11.875" stroke="var(--category-icon-color)" stroke-linecap="round" stroke-linejoin="round"/>
        <path style="transition: all .3s" d="M2.5 8.125H17.5" stroke="var(--category-icon-color)" stroke-linecap="round" stroke-linejoin="round"/>
        <path style="transition: all .3s" d="M2.5 11.875H17.5" stroke="var(--category-icon-color)" stroke-linecap="round" stroke-linejoin="round"/>
        <path style="transition: all .3s" d="M17.5 4.375H2.5V15.625H17.5V4.375Z" stroke="var(--category-icon-color)" stroke-linecap="round" stroke-linejoin="round"/>
    </symbol>





</svg>